<svg width="23" height="24" viewBox="0 0 23 24" xmlns="http://www.w3.org/2000/svg">
    <path d="M.295 15.203c0-.308.023-.617-.007-.922-.027-.288.067-.568-.117-.876-.133-.222-.025-.596-.025-.89.112-.167.298-.005.412-.12l.318-.327a1.356 1.356 0 0 0-.275-1.178.69.69 0 0 1-.164-.548c.032-.304-.005-.617.01-.922a7.3 7.3 0 0 0-.249-1.656 4.1 4.1 0 0 1-.077-2.249C.328 4.323.387 3.108.295 1.9.29 1.85.315 1.78.29 1.75-.05 1.338.198.97.349.592c.771.063 1.5-.206 2.264-.18.5.09 1.002.15 1.507.186a5.786 5.786 0 0 1 1.562.015 7.86 7.86 0 0 0 1.51.13c.096-.003.19.02.273.07A.788.788 0 0 0 8.337.75c.326-.13.674-.264.947-.488a.308.308 0 0 1 .268-.088c.214 0 .437.046.616-.148a.235.235 0 0 1 .214 0A1.997 1.997 0 0 0 11.903.02c.377-.104.681.274 1.045.149.16.118-.014.257.08.408h.598c.16.1.274.264.311.453.383.085.785.022 1.124-.177a1.88 1.88 0 0 1 .202-.685 27.214 27.214 0 0 1 4.268.14c.169.07.146.321.335.48a.814.814 0 0 1 1.06-.225c.41.086.83.097 1.243.03.119.108.222.282.34.293.302.029.292.29.403.46.124.187.06.327-.013.533a1.64 1.64 0 0 0 0 1.112c.075.207.107.429.094.649.011 1.41.006 2.818.006 4.239-.161.165-.273.406-.577.426v.744l-.464.48c.152.382.56.656.635 1.152.047.158.083.32.107.485.004.282 0 .564 0 .845a1.935 1.935 0 0 1-.454 1.571c.212.182.473.02.724.116v9.463c-.254.141-.416-.115-.619-.109-.225.009-.363-.264-.611-.163-.202.082-.403-.175-.525-.127-.195.076-.405.1-.597.186.045.114.201.17.12.374a5.014 5.014 0 0 1-.989.03c-.469.009-.946.013-1.418 0-.208-.008-.423.073-.63-.117a.534.534 0 0 0-.495-.025 3.092 3.092 0 0 1-1.437.137 25.71 25.71 0 0 1-1.643 0 3.15 3.15 0 0 0-1.563.38.677.677 0 0 1-.555.058 4.04 4.04 0 0 0-1.617-.275c-.18.083-.222.287-.328.49a1.93 1.93 0 0 1-.864-.946c-.213-.068-.328.223-.536.143a.43.43 0 0 0 0-.072 6.313 6.313 0 0 0-1.889-.206c-.024.005-.036.081-.052.126h-1.2a.117.117 0 0 0-.117-.151 414.925 414.925 0 0 0-3.2 0 .115.115 0 0 0-.122.109c-.001.014 0 .028.004.042a3.927 3.927 0 0 0-.812.012c-.273.06-.426-.227-.683-.17-.147.032-.182-.151-.318-.226 0-1.228 0-2.467-.006-3.713 0-.054-.086-.11-.11-.136-.057-.186.08-.266.143-.343a2.261 2.261 0 0 0 .44-1.724c.143.011.15-.089.15-.193v-.967c-.2-.148-.286-.453-.596-.382zm2.3-10.52c.513.64 1.055 1.142 1.51 1.726.645.823 1.454 1.5 2.113 2.33a24.368 24.368 0 0 0 2.1 2.184c.732.715 1.3 1.583 2.05 2.283.497.465.939.99 1.436 1.456.22.206.258.576.53.685.297.123.546.345.705.63.438.59.909 1.157 1.408 1.695a16.952 16.952 0 0 0 1.662 1.749c.904.237 1.84.322 2.77.254.353-.412.613-.896.766-1.42.214-.5.374-1.025.474-1.562.183-.511.236-1.062.152-1.6a.353.353 0 0 1-.133-.04 6.134 6.134 0 0 0-2.184-1.436c-.042-.011-.075-.069-.106-.106-.532-.695-1.359-.98-2.012-1.52-.78-.65-1.686-1.136-2.497-1.749-1.025-.776-2.137-1.421-3.132-2.252-.373-.311-.83-.538-1.223-.841-.414-.32-.974-.404-1.295-.866-.174.068-.232-.184-.385-.153a.426.426 0 0 1-.475-.288c-.223-.511-.71-.67-1.088-.98-.393-.322-.928-.429-1.167-.866-.802-.138-1.28.465-1.979.686zm6.353 14.36a.44.44 0 0 0-.186-.427c-.49-.566-1.128-.96-1.634-1.515-.762-.842-1.573-1.638-2.367-2.45-.1-.103-.176-.257-.377-.216a1.448 1.448 0 0 0-.2.287c-.306.766-.555 1.56-.917 2.297-.227.46-.321.978-.272 1.491.453.27.87.6 1.237.984.144.197.348.341.579.411a3.48 3.48 0 0 0 1.504-.031c.364-.098.657-.42 1.048-.36a.811.811 0 0 0 .603-.178c.284-.213.631-.316.982-.293zm4.674-13.888a91.369 91.369 0 0 0 4.14 3.278c.573-.031.6-.057.604-.617 0-.23-.076-.502.015-.685a4.253 4.253 0 0 0 .279-2.035c-.504-.315-.948-.716-1.414-.941l-3.624 1z" fill="#F64242" fill-rule="nonzero"/>
</svg>
