<svg width="20" height="25" viewBox="0 0 20 25" xmlns="http://www.w3.org/2000/svg" xmlns:xlink="http://www.w3.org/1999/xlink">
    <defs>
        <path id="h5prr9esma" d="M0 0h20v25H0z"/>
        <path id="32qrzo9ksc" d="M0 25h20V0H0z"/>
    </defs>
    <g fill="none" fill-rule="evenodd">
        <g>
            <mask id="zto3v9crqb" fill="#fff">
                <use xlink:href="#h5prr9esma"/>
            </mask>
            <path d="M16.578 0H0V21.304C0 23.345 1.532 25 3.422 25h13.156C18.468 25 20 23.345 20 21.304V0h-3.422z" fill="#112548" mask="url(#zto3v9crqb)"/>
        </g>
        <path d="M3.422 24.424c-1.565 0-2.838-1.4-2.838-3.12V.576h18.832v20.728c0 1.72-1.273 3.12-2.838 3.12H3.422z" fill="#FFF"/>
        <path d="M14.689 3.083H3.56v16.648a1.74 1.74 0 0 0 1.75 1.728h9.378a1.74 1.74 0 0 0 1.75-1.728V3.083h-1.75z" fill="#112548"/>
        <path d="M5.311 20.998a1.277 1.277 0 0 1-1.284-1.267V3.544h11.946v16.187c0 .699-.576 1.267-1.284 1.267H5.31z" fill="#FFF"/>
        <mask id="ia79sm5fnd" fill="#fff">
            <use xlink:href="#32qrzo9ksc"/>
        </mask>
        <path fill="#112548" mask="url(#ia79sm5fnd)" d="M3.56 8.613h12.88v-.46H3.56zM3.335 15.515v-.01a.827.827 0 0 0-.1-.434c-.036-.094-.068-.166-.068-.204 0-.092.072-.123.158-.156v-.092H2.52v.085c.3.119.702.404.702.79a.54.54 0 0 1-.054.244.96.96 0 0 1-.063.096c-.187.22-.575.289-.99.289-.582 0-1.108-.133-1.108-.628l.001-.039c.026-.367.411-.637.7-.752v-.085H.904v.092c.086.033.158.064.158.156 0 .033-.025.092-.055.168-.075.114-.114.25-.114.47v.017c0 .09.009.175.025.257.115.615.618.944 1.182.944h.028c.564 0 1.068-.329 1.183-.944a1.33 1.33 0 0 0 .024-.257v-.007M3.27 12.16v1.962h-.086c-.024-.19-.034-.292-.244-.292H1.275c-.227 0-.234.139-.244.292H.945v-1.185h.086c.01.238.014.343.316.343h1.624c.165 0 .192-.075.192-.302 0-.513-.285-.703-.674-.859v-.099l.781.14zM1.03 9.436c.028.187.066.265.293.265H2.42c.203 0 .51.048.664.19.186.17.251.465.251.669 0 .15-.02.468-.216.689-.131.146-.252.234-.623.234H1.347c-.289 0-.296.089-.316.279H.945v-1.148h.086c.01.224.014.33.316.33h1.149c.196 0 .67 0 .67-.49 0-.597-.525-.603-.746-.603H1.371c-.21 0-.326.04-.34.332H.945v-.747h.086zM3.27 9.131V8.038c-.014-.716-.35-.953-.64-.953-.392 0-.564.356-.612.641h-.007c-.045-.143-.134-.526-.516-.526-.536 0-.55.692-.55.882v1.05h.086c.01-.157.017-.3.244-.3H2.94c.21 0 .223.11.244.3h.086zM1.217 8.29c-.08-.004-.169-.007-.169-.18 0-.275.203-.35.444-.35.35 0 .495.075.495.53h-.77zm.873 0v-.102c.01-.22.062-.52.554-.52.21 0 .516.044.516.418 0 .143-.055.204-.21.204h-.86zM16.733 9.09V7.13h.086c.024.19.035.292.244.292h1.665c.227 0 .234-.14.244-.292h.086v1.184h-.086c-.01-.237-.014-.342-.316-.342h-1.624c-.164 0-.192.074-.192.302 0 .512.285.702.674.858v.099l-.78-.14zM16.733 10.74V9.55h.086c.017.184.031.316.244.316h1.665c.227 0 .234-.16.244-.316h.086v1.188h-.086c-.006-.16-.01-.322-.244-.322h-1.665c-.22 0-.23.136-.244.322h-.086zM16.733 14.134v-1.127h.086c.02.204.031.302.258.302h1.734v-.006l-2.078-.849v-.092l2.026-.848v-.007h-1.6c-.24 0-.323.06-.34.343h-.086v-.795h.086c.024.265.076.31.275.31h1.634c.179 0 .227-.062.244-.303h.086v.859l-1.623.679 1.623.679v.855h-.086c-.014-.19-.02-.299-.316-.299h-1.52c-.276 0-.286.075-.317.299h-.086zM16.82 16.682c-.008-.163.11-.218.477-.37l1.81-.757v-.095l-1.885-.754c-.258-.102-.375-.15-.403-.333h-.086v.69h.086c.007-.116.017-.279.148-.279.055 0 .196.054.444.15v.763c-.11.048-.365.156-.458.156-.113 0-.117-.061-.134-.271h-.086v1.1h.086zm.725-1.698.836.32-.836.342v-.662zM8.334 23.995H7.167v-.073c.36.003.37-.116.37-.305v-1.173c0-.076 0-.21-.122-.21-.043 0-.149.036-.255.076v-.08l.785-.332h.052v1.737c0 .204.028.287.337.287v.073zM8.51 24.035c.933-.092 1.375-.677 1.375-1.231 0-.732-.432-.906-.712-.906-.56 0-.679.518-.679.683 0 .525.349.64.564.64a.739.739 0 0 0 .149-.012.402.402 0 0 0 .137-.046c-.159.576-.523.731-.834.793v.079zm.457-1.622c0-.24 0-.432.19-.432.193 0 .24.188.24.789 0 .07-.019.226-.028.274-.003.025-.087.04-.137.04-.215 0-.265-.232-.265-.67zM10.147 22.983c0 .613.305 1.052.703 1.052.436 0 .703-.503.703-1.052 0-.731-.373-1.085-.7-1.085-.314 0-.706.317-.706 1.085zm.915.336c0 .2-.028.396-.044.46-.015.06-.05.17-.165.17-.161 0-.214-.195-.214-.63v-.699c0-.252 0-.636.208-.636.15 0 .215.176.215.636v.699zM12.807 23.995H11.64v-.073c.361.003.37-.116.37-.305v-1.173c0-.076 0-.21-.12-.21-.044 0-.15.036-.256.076v-.08l.784-.332h.053v1.737c0 .204.028.287.336.287v.073z"/>
        <path d="M4.528 2.84c-.157.007-.21-.103-.357-.45L3.44.692h-.092l-.727 1.77c-.098.243-.144.353-.32.38v.08h.664v-.08c-.111-.007-.268-.017-.268-.14 0-.051.052-.184.144-.417h.736c.046.104.15.343.15.43 0 .107-.058.11-.261.126v.08h1.06v-.08zM2.89 2.158l.308-.785.33.785h-.638zM6.705 2.92H4.813v-.08c.183-.023.281-.032.281-.23V1.048c0-.213-.134-.22-.281-.23v-.08h1.142v.08c-.229.01-.33.013-.33.298V2.64c0 .155.072.18.291.18.495 0 .678-.268.829-.633h.094l-.134.734zM8.166 2.92H7.02v-.08c.177-.016.305-.029.305-.23V1.048c0-.213-.154-.22-.305-.23v-.08h1.146v.08c-.154.007-.31.01-.31.23V2.61c0 .206.13.216.31.23v.08zM10.623 2.84c-.157.007-.21-.103-.357-.45L9.536.692h-.092l-.727 1.77c-.098.243-.144.353-.32.38v.08h.664v-.08c-.111-.007-.269-.017-.269-.14 0-.051.053-.184.145-.417h.736c.046.104.15.343.15.43 0 .107-.058.11-.261.126v.08h1.06v-.08zm-1.637-.682.307-.785.331.785h-.638zM10.78 2.84c.196-.023.288-.045.288-.258V1.05c-.183-.223-.236-.233-.278-.233v-.08h.69l1.137 1.38h.006v-.98c0-.194-.039-.3-.304-.32v-.08h.704v.08c-.236.03-.256.104-.256.259v1.903h-.091l-1.457-1.751h-.007V2.52c0 .233.069.294.311.32v.08h-.743v-.08zM15.15 2.92h-1.9v-.05L14.502.85c-.553.016-.553.016-.66.048-.246.074-.338.34-.397.504h-.092l.069-.665h1.715v.051l-1.24 2.02c.73.01 1.083.013 1.253-.666h.086l-.086.779zM17.666 2.84c-.157.007-.209-.103-.357-.45L16.58.692h-.091l-.727 1.77c-.099.243-.144.353-.321.38v.08h.665v-.08c-.112-.007-.269-.017-.269-.14 0-.051.052-.184.144-.417h.737c.046.104.15.343.15.43 0 .107-.059.11-.261.126v.08h1.06v-.08zm-1.637-.682.308-.785.33.785h-.638zM7.54 5.053a.094.094 0 0 0-.094.093c0 .01.001.019.004.028l-.339.148-.01-.004.003-.467a.093.093 0 0 0 .09-.093.094.094 0 0 0-.094-.093.094.094 0 0 0-.095.093c0 .022.008.041.02.057l-.35.281-.206-.562a.093.093 0 0 0 .062-.087.094.094 0 0 0-.094-.094.094.094 0 0 0-.094.094c0 .04.026.074.062.087l-.206.562-.348-.278a.091.091 0 0 0 .023-.06.094.094 0 0 0-.095-.093.094.094 0 0 0-.094.093c0 .049.038.088.085.093l.002.467-.01.004-.338-.148a.092.092 0 0 0 .004-.028.094.094 0 0 0-.094-.093.094.094 0 0 0-.094.093.094.094 0 0 0 .131.085l.171.444c.075.195.446.343.895.346.449-.003.82-.151.895-.346l.17-.443a.094.094 0 0 0 .132-.085.094.094 0 0 0-.094-.094" fill="#102547" mask="url(#ia79sm5fnd)"/>
        <path d="M6.437 5.908c-.43 0-.729-.125-.729-.236 0-.112.3-.236.729-.236.43 0 .729.124.729.236 0 .111-.3.236-.729.236" fill="#FFF" mask="url(#ia79sm5fnd)"/>
        <path d="M14.666 5.053a.094.094 0 0 0-.095.093c0 .01.002.019.005.028l-.339.148-.01-.004.003-.467a.094.094 0 0 0 .09-.093.094.094 0 0 0-.094-.093.094.094 0 0 0-.095.093.09.09 0 0 0 .02.057l-.35.281-.206-.562a.093.093 0 0 0 .062-.087.094.094 0 0 0-.094-.094.094.094 0 0 0-.094.094c0 .04.026.074.062.087l-.205.562-.348-.278a.092.092 0 0 0 .022-.06.094.094 0 0 0-.095-.093.094.094 0 0 0-.094.093c0 .049.038.088.085.093l.002.467-.009.004-.34-.148a.096.096 0 0 0 .005-.028.094.094 0 0 0-.094-.093.094.094 0 0 0-.094.093.094.094 0 0 0 .131.085l.171.444c.075.195.446.343.895.346.449-.003.82-.151.895-.346l.17-.443a.094.094 0 0 0 .132-.085.094.094 0 0 0-.094-.094" fill="#102547" mask="url(#ia79sm5fnd)"/>
        <path d="M13.563 5.908c-.43 0-.729-.125-.729-.236 0-.112.3-.236.729-.236.43 0 .729.124.729.236 0 .111-.3.236-.73.236" fill="#FFF" mask="url(#ia79sm5fnd)"/>
        <path d="M11.114 6.95a.094.094 0 0 0-.094.093c0 .01.001.019.004.028l-.339.148-.01-.004.003-.467a.094.094 0 0 0 .09-.092.094.094 0 0 0-.094-.094.094.094 0 0 0-.095.094c0 .02.008.04.02.056l-.35.281-.206-.562a.093.093 0 0 0 .062-.087.094.094 0 0 0-.094-.094.094.094 0 0 0-.094.094c0 .04.026.074.062.087l-.205.562-.348-.278a.092.092 0 0 0 .022-.06.094.094 0 0 0-.095-.093.094.094 0 0 0-.094.094c0 .048.038.087.085.092l.002.467-.009.004-.34-.148a.093.093 0 0 0 .005-.028.094.094 0 0 0-.094-.093.094.094 0 0 0-.094.093.094.094 0 0 0 .131.085l.171.444c.075.195.446.344.895.346.449-.002.82-.151.895-.346l.17-.443a.094.094 0 0 0 .132-.085.094.094 0 0 0-.094-.094" fill="#102547" mask="url(#ia79sm5fnd)"/>
        <path d="M10.011 7.805c-.43 0-.728-.125-.728-.236 0-.112.299-.236.728-.236.43 0 .729.124.729.236 0 .111-.3.236-.729.236" fill="#FFF" mask="url(#ia79sm5fnd)"/>
        <path fill="#112548" mask="url(#ia79sm5fnd)" d="M9.124 21.267h1.751V8.383h-1.75zM12.626 21.267h1.751V8.383h-1.75zM5.623 21.267h1.75V8.383h-1.75zM10.011 4.001l.24.73h.779l-.63.452.24.73-.629-.45-.63.45.24-.73-.628-.452h.777z"/>
    </g>
</svg>
