<svg width="25" height="25" viewBox="0 0 25 25" xmlns="http://www.w3.org/2000/svg">
    <g fill="none" fill-rule="evenodd">
        <path d="M25 12.5C25 19.404 19.404 25 12.5 25S0 19.404 0 12.5 5.596 0 12.5 0 25 5.596 25 12.5" fill="#DA2129"/>
        <path d="M23.703 12.475c0 6.2-5.027 11.228-11.228 11.228-6.2 0-11.227-5.027-11.227-11.228 0-6.2 5.026-11.228 11.227-11.228 6.2 0 11.228 5.027 11.228 11.228" fill="#EDEBD6"/>
        <path d="M5.658 5.055H9.15v8.913c0 1.415.043 2.332.13 2.75.149.674.505 1.215 1.068 1.623.563.408 1.332.612 2.308.612.991 0 1.74-.193 2.243-.579.504-.385.807-.858.909-1.42.102-.56.153-1.493.153-2.794V5.055h3.493v8.646c0 1.977-.094 3.373-.283 4.189-.189.815-.537 1.504-1.045 2.066-.507.561-1.186 1.009-2.036 1.342-.85.332-1.959.499-3.328.499-1.652 0-2.905-.182-3.76-.545-.853-.363-1.528-.834-2.024-1.414-.495-.58-.822-1.189-.979-1.825-.228-.943-.342-2.335-.342-4.177v-8.78z" fill="#DA2128"/>
    </g>
</svg>
