<svg width="40" height="66" viewBox="0 0 40 66" xmlns="http://www.w3.org/2000/svg">
    <defs>
        <linearGradient x1="0%" y1="50%" x2="100%" y2="50%" id="5vh7p6gw4a">
            <stop stop-color="#06E8D2" offset="0%"/>
            <stop stop-color="#FFF200" offset="100%"/>
        </linearGradient>
    </defs>
    <path d="M178.727 131.788c0-2.92-2.348-5.353-5.317-5.353-1.243 0-2.417.487-3.314 1.25-.967-1.39-2.555-2.362-4.42-2.362a5.226 5.226 0 0 0-5.178 4.518l-1.312-2.92 3.038-9.663a5.679 5.679 0 0 0-.414-4.24c-.69-1.32-1.795-2.294-3.245-2.711a5.572 5.572 0 0 0-4.212.417 6.01 6.01 0 0 0-1.864 1.599c-.553-.903-1.45-1.529-2.417-1.946a5.222 5.222 0 0 0-4.212.14c-1.312.625-2.348 1.668-2.9 3.058a5.323 5.323 0 0 0 .138 4.24l4.35 9.733-2.831 8.967a7.762 7.762 0 0 0-3.521 5.422l-.967 7.647c-.552 3.963.69 7.994 3.314 10.984l6.767 7.716v6.256c0 .834.621 1.46 1.45 1.46.828 0 1.45-.626 1.45-1.46v-6.812c0-.348-.138-.696-.345-.974l-7.112-8.064a11.048 11.048 0 0 1-2.624-8.69l.966-7.646a4.643 4.643 0 0 1 4.626-4.101h.07l9.114.208c1.312 0 2.347 1.113 2.347 2.364 0 .625-.276 1.25-.76 1.737-.483.487-1.104.696-1.725.696l-6.214-.278c-.76 0-1.381.487-1.52 1.251l-.62 4.032c-.14.765.413 1.53 1.242 1.668.828.14 1.519-.417 1.657-1.25l.345-2.434c6.836 2.92 6.353 9.524 6.284 9.802-.069.765.483 1.53 1.312 1.599h.138c.76 0 1.381-.557 1.45-1.321 0-.07.553-5.979-4.004-10.22 1.38 0 2.692-.486 3.66-1.46a5.098 5.098 0 0 0 1.104-1.598c.898.695 2.002 1.112 3.176 1.112a5.304 5.304 0 0 0 4.42-2.363c.897.765 2.071 1.251 3.314 1.251a5.221 5.221 0 0 0 3.107-1.042c.621 5.074.621 10.844.552 14.667v.14c0 3.406-1.795 6.534-4.626 8.341l-1.657 1.043c-.415.278-.691.765-.691 1.25v7.092c0 .834.621 1.46 1.45 1.46s1.45-.696 1.45-1.46v-6.326l.967-.626c3.728-2.294 5.938-6.326 6.007-10.775v-.14c.069-4.795.138-12.93-1.243-18.977v-5.908zm-24.305-17.031c.207-.626.69-1.251 1.312-1.53a2.516 2.516 0 0 1 2.002-.208c.69.208 1.243.695 1.52 1.32.344.626.413 1.322.206 2.016l-2.071 6.535-3.246-7.229.277-.904zm-5.662 20.646c-.276 0-.484.07-.76.07l1.174-3.824 1.726 3.823-2.14-.07zm9.114.139-3.728-.07-8.493-18.838c-.276-.626-.276-1.321-.07-2.016.208-.695.76-1.182 1.382-1.46.621-.278 1.38-.278 2.002-.07.69.279 1.174.765 1.45 1.39l9.667 21.69c-.622-.347-1.381-.556-2.21-.626zm10.22 3.337c0 1.32-1.106 2.433-2.418 2.433s-2.417-1.112-2.417-2.433v-8.203a2.41 2.41 0 0 1 2.418-2.433c1.312 0 2.417 1.112 2.417 2.433v8.203zm7.732-1.112c0 1.32-1.104 2.433-2.416 2.433-1.312 0-2.417-1.112-2.417-2.433v-6.048c0-1.321 1.105-2.433 2.417-2.433 1.312 0 2.416 1.112 2.416 2.433v6.048z" transform="translate(-140 -110)" fill="url(#5vh7p6gw4a)" fill-rule="nonzero"/>
</svg>
