<svg width="50" height="50" viewBox="0 0 50 50" xmlns="http://www.w3.org/2000/svg">
    <defs>
        <linearGradient x1="0%" y1="50%" x2="100%" y2="50%" id="seu78uoifa">
            <stop stop-color="#06E8D2" offset="0%"/>
            <stop stop-color="#FFF200" offset="100%"/>
        </linearGradient>
    </defs>
    <path d="M161 101c13.784 0 25 11.215 25 25 0 13.786-11.216 25-25 25-13.786 0-25-11.214-25-25 0-13.785 11.214-25 25-25zm0 3c-12.132 0-22 9.87-22 22s9.868 22 22 22 22-9.87 22-22-9.868-22-22-22zm7.316 23.578c2.266 1.51 2.719 4.5 1.012 6.676a5.401 5.401 0 0 1-2.812 1.859l-.252.064-4.275 1.145-.208.06-.21.052-.993.265c-2.603.87-3.276 2.687-3.315 2.8l-.002.006-1.711-6.389c-.36-1.34-.087-2.835.881-4.07a5.387 5.387 0 0 1 2.586-1.79l.25-.076 4.725-1.266c1.448-.387 3.04-.191 4.324.664zm-21.042-11.265c.691.63.75 1.705.132 2.4a8.574 8.574 0 0 0-1.895 7.932 1.688 1.688 0 0 1-1.179 2.076 1.689 1.689 0 0 1-2.059-1.209 11.979 11.979 0 0 1 2.632-11.083 1.66 1.66 0 0 1 2.37-.116zm17.795-.815c2.28 1.505 2.73 4.495 1.006 6.677a5.476 5.476 0 0 1-2.838 1.865l-.254.065-4.19 1.122-.209.06-.211.053-1.002.267c-2.625.876-3.306 2.696-3.346 2.809l-.002.006-1.711-6.389c-.359-1.34-.082-2.837.896-4.075a5.458 5.458 0 0 1 2.61-1.796l.253-.076 4.642-1.244c1.46-.39 3.064-.198 4.356.656z" transform="translate(-136 -101)" fill="url(#seu78uoifa)" fill-rule="nonzero"/>
</svg>
