<svg width="24" height="21" viewBox="0 0 24 21" xmlns="http://www.w3.org/2000/svg">
    <defs>
        <filter id="kdf1hz0vaa">
            <feColorMatrix in="SourceGraphic" values="0 0 0 0 0.125490 0 0 0 0 0.184314 0 0 0 0 0.266667 0 0 0 1.000000 0"/>
        </filter>
    </defs>
    <g filter="url(#kdf1hz0vaa)" fill="none" fill-rule="evenodd">
        <g fill="#44444D">
            <path d="M20.09 18.673H3.854a.765.765 0 0 1-.747-.584L.02 5.099a.75.75 0 0 1 .273-.768.775.775 0 0 1 .82-.081l6.053 3.01L11.341.37A.77.77 0 0 1 12 0c.27 0 .52.14.66.369l4.174 6.891 6.052-3.01a.78.78 0 0 1 .822.082c.235.183.34.483.271.77l-2.577 10.652a.768.768 0 0 1-.925.561.757.757 0 0 1-.569-.912l2.193-9.066-5.214 2.593a.774.774 0 0 1-1.006-.288L12 2.234 8.119 8.642a.775.775 0 0 1-1.006.288L1.891 6.333l2.572 10.826H20.09c.424 0 .767.34.767.758a.762.762 0 0 1-.767.756M20.09 21H3.854a.762.762 0 0 1-.768-.757c0-.418.344-.757.768-.757H20.09c.424 0 .767.339.767.757a.762.762 0 0 1-.767.757"/>
            <path d="m9.544 11.325.939.903a.75.75 0 0 1 .22.67l-.22 1.274 1.16-.601a.78.78 0 0 1 .715 0l1.16.6-.22-1.273a.75.75 0 0 1 .22-.67l.94-.903-1.298-.185a.767.767 0 0 1-.579-.415l-.58-1.16-.582 1.16a.767.767 0 0 1-.578.415l-1.297.185zm4.615 4.73a1.33 1.33 0 0 1-.62-.162l-1.538-.797-1.541.799c-.51.266-1.081.182-1.401-.192-.215-.251-.297-.599-.231-.978l.294-1.69-1.245-1.197c-.353-.34-.48-.76-.351-1.157.13-.396.484-.664.971-.737l1.724-.246.771-1.538c.214-.43.591-.686 1.008-.686.423 0 .792.25 1.01.686l.77 1.538 1.72.246c.492.073.846.34.975.737.13.396.003.817-.35 1.156l-1.246 1.197.294 1.691c.067.378-.015.725-.23.977a1.025 1.025 0 0 1-.784.353z"/>
        </g>
    </g>
</svg>
