<svg width="25" height="25" viewBox="0 0 25 25" xmlns="http://www.w3.org/2000/svg">
    <defs>
        <filter id="z0aoyek8ha">
            <feColorMatrix in="SourceGraphic" values="0 0 0 0 0.125490 0 0 0 0 0.184314 0 0 0 0 0.266667 0 0 0 1.000000 0"/>
        </filter>
    </defs>
    <g fill="none" fill-rule="evenodd">
        <circle fill="#FFF200" cx="12.5" cy="12.5" r="12.5"/>
        <g filter="url(#z0aoyek8ha)">
            <g fill="#44444D">
                <path d="M18.393 17.449H7.57a.51.51 0 0 1-.499-.39L5.014 8.4a.5.5 0 0 1 .181-.511.517.517 0 0 1 .547-.055L9.778 9.84l2.782-4.594A.513.513 0 0 1 13 5c.18 0 .347.093.44.246l2.782 4.594 4.035-2.007a.52.52 0 0 1 .549.055.502.502 0 0 1 .18.513l-1.718 7.102a.512.512 0 0 1-.616.374.505.505 0 0 1-.38-.608l1.462-6.045-3.476 1.73a.516.516 0 0 1-.67-.193L13 6.49l-2.588 4.272a.517.517 0 0 1-.67.192L6.26 9.222l1.715 7.218h10.418c.283 0 .512.225.512.504s-.23.505-.512.505M18.393 19H7.57a.508.508 0 0 1-.512-.505c0-.278.229-.504.512-.504h10.823c.283 0 .512.226.512.504 0 .28-.23.505-.512.505"/>
                <path d="m11.363 12.55.626.602a.5.5 0 0 1 .147.447l-.148.85.775-.402a.52.52 0 0 1 .476 0l.773.4-.147-.848a.5.5 0 0 1 .147-.447l.626-.602-.865-.124a.511.511 0 0 1-.386-.276l-.386-.773-.388.773a.511.511 0 0 1-.386.276l-.864.124zm3.076 3.154a.886.886 0 0 1-.413-.109l-1.025-.53-1.028.531c-.34.178-.72.122-.934-.128-.143-.167-.198-.399-.154-.651l.196-1.127-.83-.798c-.235-.226-.32-.507-.234-.771.087-.264.323-.443.648-.491l1.15-.165.513-1.025c.143-.287.394-.457.672-.457.282 0 .528.166.673.457l.513 1.025 1.148.164c.327.049.563.227.65.491.086.264.001.545-.234.771l-.83.799.195 1.127c.045.252-.01.483-.153.65a.683.683 0 0 1-.523.237z"/>
            </g>
        </g>
    </g>
</svg>
