<svg fill="none" height="28" viewBox="0 0 28 28" width="28" xmlns="http://www.w3.org/2000/svg"><path d="m14 3.44c-5.82 0-10.56 4.74-10.56 10.56s4.74 10.56 10.56 10.56 10.56-4.74 10.56-10.56-4.74-10.56-10.56-10.56zm-12 10.56c0-6.62 5.38-12 12-12s12 5.38 12 12-5.38 12-12 12-12-5.38-12-12zm14.11-.31c.74-.2 1.55-.1 2.21.34 1.16.77 1.39 2.3.52 3.41-.36.45-.84.77-1.37.93l-2.39.64-.11.03-.11.03-.51.14c-1.31.44-1.66 1.34-1.69 1.43l-.88-3.26c-.18-.68-.05-1.45.45-2.08.32-.41.75-.72 1.24-.89l.21-.06 2.42-.65zm-2.01-5.7c.75-.2 1.57-.1 2.23.34 1.17.77 1.4 2.3.51 3.41-.36.45-.85.77-1.38.93l-2.34.63-.11.03-.11.03-.51.14c-1.32.44-1.68 1.34-1.71 1.43l-.88-3.26c-.18-.69-.04-1.45.46-2.08.33-.42.77-.72 1.25-.89l.21-.07zm-6.96 1.27c.33.3.36.82.06 1.15-.93 1.03-1.27 2.47-.91 3.81.12.43-.13.88-.56 1-.43.11-.88-.15-.99-.58-.5-1.87-.03-3.87 1.26-5.32.29-.33.8-.36 1.13-.07h.01z" fill="#fff200" stroke="#fff" stroke-width=".2"/></svg>