<svg viewBox="0 0 15 15" xmlns="http://www.w3.org/2000/svg"><g fill="#202f44"><path d="m0 7.5c0-4.14 3.36-7.5 7.5-7.5s7.5 3.36 7.5 7.5-3.36 7.5-7.5 7.5-7.5-3.36-7.5-7.5zm7.5-6.44c-3.55 0-6.44 2.89-6.44 6.44s2.89 6.44 6.44 6.44 6.44-2.89 6.44-6.44-2.89-6.44-6.44-6.44z"/><path d="m9.17 7.22c.48-.36.56-1.01.16-1.46-.22-.25-.55-.38-.88-.38h-1.04c-.25 0-.5.08-.71.23-.27.2-.42.5-.42.8v1.44s.24-.36.86-.4h.22s.06 0 .09 0h.94c.26 0 .53-.07.76-.23" fill-rule="evenodd"/><path d="m9.17 9.87c.48-.36.55-1.01.16-1.46-.22-.25-.54-.38-.87-.38h-1.06c-.25 0-.49.08-.7.23-.27.2-.41.5-.41.8v1.44s.24-.36.85-.4h.22s.06 0 .09 0h.96c.26 0 .53-.07.75-.23" fill-rule="evenodd"/><path d="m6.28 2.63c-.09.12-.12.27-.1.42.05.3.32.52.64.47.2-.03.4-.05.61-.05.31 0 .56-.26.56-.56 0-.31-.25-.55-.56-.55-.26 0-.52.02-.78.06-.15.02-.28.1-.37.22z"/><path d="m4.6 3.19c-1.48.96-2.36 2.57-2.36 4.31 0 .31.25.56.56.56s.56-.25.56-.56c0-1.36.69-2.62 1.85-3.37.12-.08.21-.21.24-.35s0-.3-.08-.42c-.11-.17-.29-.25-.47-.25-.1 0-.21.03-.3.09z"/></g></svg>