<svg width="28" height="28" viewBox="0 0 28 28" xmlns="http://www.w3.org/2000/svg">
    <defs>
        <linearGradient x1="0%" y1="50%" x2="100%" y2="50%" id="38b45cui5a">
            <stop stop-color="#06E8D2" offset="0%"/>
            <stop stop-color="#FFF200" offset="100%"/>
        </linearGradient>
        <linearGradient x1="0%" y1="50%" x2="100%" y2="50%" id="ckchaa9drb">
            <stop stop-color="#06E8D2" offset="0%"/>
            <stop stop-color="#FFF200" offset="100%"/>
        </linearGradient>
    </defs>
    <g fill-rule="nonzero" fill="none">
        <path d="M12.31 20.59a1.4 1.4 0 0 0 1.902.073l4.9-4.2a1.4 1.4 0 0 0-1.822-2.126l-3.916 3.356-1.184-1.183a1.4 1.4 0 1 0-1.98 1.98l2.1 2.1z" fill="url(#38b45cui5a)"/>
        <path d="M7 0a1.4 1.4 0 0 1 1.4 1.4v1.4h11.2V1.4a1.4 1.4 0 0 1 2.8 0v1.4h1.4A4.2 4.2 0 0 1 28 7v16.8a4.2 4.2 0 0 1-4.2 4.2H4.2A4.2 4.2 0 0 1 0 23.8V7a4.2 4.2 0 0 1 4.2-4.2h1.4V1.4A1.4 1.4 0 0 1 7 0zM4.2 5.6A1.4 1.4 0 0 0 2.8 7v1.4h22.4V7a1.4 1.4 0 0 0-1.4-1.4H4.2zm21 5.6H2.8v12.6a1.4 1.4 0 0 0 1.4 1.4h19.6a1.4 1.4 0 0 0 1.4-1.4V11.2z" fill="url(#ckchaa9drb)"/>
    </g>
</svg>
