<svg width="28" height="28" viewBox="0 0 28 28" xmlns="http://www.w3.org/2000/svg">
    <defs>
        <filter id="o0cx0810ua">
            <feColorMatrix in="SourceGraphic" values="0 0 0 0 0.125490 0 0 0 0 0.184314 0 0 0 0 0.266667 0 0 0 1.000000 0"/>
        </filter>
    </defs>
    <g fill="none" fill-rule="evenodd">
        <circle fill="#FFF200" cx="14" cy="14" r="14"/>
        <g filter="url(#o0cx0810ua)">
            <g fill="#44444D">
                <path d="M20.6 19.543H8.478a.571.571 0 0 1-.558-.437L5.615 9.407a.56.56 0 0 1 .204-.573.579.579 0 0 1 .613-.06l4.519 2.247 3.117-5.146a.575.575 0 0 1 .492-.275c.202 0 .389.104.492.275l3.117 5.146 4.52-2.248c.199-.099.438-.074.613.062s.254.36.202.575l-1.924 7.953a.573.573 0 0 1-.69.419.565.565 0 0 1-.425-.681l1.637-6.77-3.893 1.937a.578.578 0 0 1-.751-.215L14.56 7.268l-2.898 4.785a.579.579 0 0 1-.75.215l-3.9-1.94 1.92 8.084H20.6a.57.57 0 0 1 .574.566.57.57 0 0 1-.574.565M20.6 21.28H8.478a.57.57 0 0 1-.574-.565.57.57 0 0 1 .574-.565H20.6a.57.57 0 0 1 .574.565.57.57 0 0 1-.574.565"/>
                <path d="m12.726 14.056.701.674a.56.56 0 0 1 .165.5l-.165.952.867-.45a.583.583 0 0 1 .533 0l.867.45-.166-.951a.56.56 0 0 1 .165-.501l.702-.674-.969-.138a.573.573 0 0 1-.432-.31l-.433-.866-.435.866a.573.573 0 0 1-.431.31l-.969.138zm3.446 3.532a.993.993 0 0 1-.463-.121l-1.148-.595-1.15.596c-.381.199-.808.136-1.047-.143-.16-.188-.222-.447-.172-.73l.219-1.263-.93-.893c-.263-.253-.359-.568-.262-.864.097-.296.362-.496.726-.55l1.287-.184.575-1.148c.16-.321.442-.513.753-.513.316 0 .591.187.754.513l.575 1.148 1.285.184c.366.054.63.254.728.55.096.295.001.61-.262.863l-.93.894.219 1.263c.05.282-.01.541-.171.73a.765.765 0 0 1-.586.263z"/>
            </g>
        </g>
    </g>
</svg>
