<?xml version="1.0" encoding="utf-8"?>
<!-- Generator: Adobe Illustrator 26.2.1, SVG Export Plug-In . SVG Version: 6.00 Build 0)  -->
<svg version="1.1" id="Capa_1" xmlns="http://www.w3.org/2000/svg" xmlns:xlink="http://www.w3.org/1999/xlink" x="0px" y="0px"
	 viewBox="0 0 17.1 18.1" style="enable-background:new 0 0 17.1 18.1;" xml:space="preserve">
<style type="text/css">
	.st0{fill-rule:evenodd;clip-rule:evenodd;fill:#F6BE2A;}
	.st1{fill:url(#SVGID_1_);}
	.st2{fill-rule:evenodd;clip-rule:evenodd;fill:#F09020;}
	.st3{fill-rule:evenodd;clip-rule:evenodd;fill:url(#SVGID_00000119825122422611412430000003273635558401407911_);}
	.st4{filter:url(#Adobe_OpacityMaskFilter);}
	.st5{fill-rule:evenodd;clip-rule:evenodd;fill:#FFFFFF;}
	
		.st6{opacity:0.2;mask:url(#gogxjquf2e_00000049935602826931336600000000343257963782389153_);fill-rule:evenodd;clip-rule:evenodd;fill:#FBDA1E;enable-background:new    ;}
	.st7{fill-rule:evenodd;clip-rule:evenodd;}
	.st8{fill-rule:evenodd;clip-rule:evenodd;fill:#FFF200;}
</style>
<g transform="rotate(-14 26.846 -13.949)">
	<path class="st0" d="M9.5,6.7c-0.9,3.5-4.4,5.4-7.9,4.5C-1.8,10.3-3.9,6.9-3,3.4C-2-0.1,1.5-2.1,4.9-1.2S10.4,3.3,9.5,6.7"/>
	
		<linearGradient id="SVGID_1_" gradientUnits="userSpaceOnUse" x1="-708.1823" y1="205.1031" x2="-708.8223" y2="204.3083" gradientTransform="matrix(14.9962 8.3125 8.3125 -14.9962 8925.7305 8961.3242)">
		<stop  offset="0" style="stop-color:#FFD529"/>
		<stop  offset="0.1775" style="stop-color:#FFEF69"/>
		<stop  offset="0.3939" style="stop-color:#FDCB00"/>
		<stop  offset="0.6106" style="stop-color:#FFE400"/>
		<stop  offset="0.8222" style="stop-color:#FDCB00"/>
		<stop  offset="1" style="stop-color:#FFE400"/>
	</linearGradient>
	<path class="st1" d="M-4.7,1.7c1.2-4.6,6-7.4,10.5-6.2c4.6,1.2,7.3,6,6,10.6c-1.2,4.6-5.8,7.2-10.5,6S-6,6.3-4.7,1.7z"/>
	<path class="st2" d="M5.5-3.3C1.6-4.3-2.5-2-3.6,2c-1.1,3.9,1.3,7.8,5.3,8.9c4,1.1,8-1.2,9-5.1C11.8,1.9,9.4-2.2,5.5-3.3"/>
	
		<linearGradient id="SVGID_00000168809209420939740320000009542828149189740434_" gradientUnits="userSpaceOnUse" x1="-700.3347" y1="203.052" x2="-700.3347" y2="202.052" gradientTransform="matrix(12.605 6.9758 6.9751 -12.563 7416.8311 7433.4062)">
		<stop  offset="0" style="stop-color:#FDAE00"/>
		<stop  offset="1" style="stop-color:#FDAE00"/>
	</linearGradient>
	<path style="fill-rule:evenodd;clip-rule:evenodd;fill:url(#SVGID_00000168809209420939740320000009542828149189740434_);" d="
		M5.4-2.9C1.6-4-2.4-1.6-3.4,2.2c-1,3.8,1.2,7.7,5.1,8.7s7.8-1.1,8.8-5C11.5,2.1,9.2-1.9,5.4-2.9"/>
	<g transform="rotate(15 -7.236 24.08)">
		<defs>
			<filter id="Adobe_OpacityMaskFilter" filterUnits="userSpaceOnUse" x="-9.4" y="-7.4" width="16.8" height="18.4">
				<feColorMatrix  type="matrix" values="1 0 0 0 0  0 1 0 0 0  0 0 1 0 0  0 0 0 1 0"/>
			</filter>
		</defs>
		
			<mask maskUnits="userSpaceOnUse" x="-9.4" y="-7.4" width="16.8" height="18.4" id="gogxjquf2e_00000049935602826931336600000000343257963782389153_">
			<g class="st4">
				<path id="_x34_gbirfjdpd_00000059304244264255199530000012736493923394070937_" class="st5" d="M4.4,1.8c0,3.6-2.9,6.3-6.4,6.3
					c-3.5,0-6.4-2.7-6.4-6.3c0-3.6,2.9-6.5,6.4-6.5C1.5-4.7,4.4-1.8,4.4,1.8"/>
			</g>
		</mask>
		<path class="st6" d="M-8.4,6.6l-1.1-1.1L3.3-7.3l1.1,1.1L-8.4,6.6 M-8.7,8.4L5-5.5l2.5,2.5L-6.2,11L-8.7,8.4z"/>
	</g>
	<g transform="rotate(15 2.219 16.854)">
		<g>
			<path id="_x33_jzvy640cg" class="st7" d="M1.3,3.8C2.2,3.8,3,4.5,3,5.5c0,1-0.8,1.8-1.7,1.8l-1.8,0c-1.3,0-1.7,0.9-1.7,0.9l0-2.7
				c0-1,0.8-1.8,1.7-1.8L1.3,3.8z M1.3-0.7C2.2-0.7,3,0.1,3,1.1c0,1-0.8,1.8-1.7,1.8l-1.8,0c-1.3,0-1.7,0.9-1.7,0.9l0-2.7
				c0-1,0.8-1.8,1.7-1.8L1.3-0.7z"/>
		</g>
		<g>
			<path id="_x33_jzvy640cg_00000094601000739036703750000014417937065992481412_" class="st8" d="M1.3,3.8C2.2,3.8,3,4.5,3,5.5
				c0,1-0.8,1.8-1.7,1.8l-1.8,0c-1.3,0-1.7,0.9-1.7,0.9l0-2.7c0-1,0.8-1.8,1.7-1.8L1.3,3.8z M1.3-0.7C2.2-0.7,3,0.1,3,1.1
				c0,1-0.8,1.8-1.7,1.8l-1.8,0c-1.3,0-1.7,0.9-1.7,0.9l0-2.7c0-1,0.8-1.8,1.7-1.8L1.3-0.7z"/>
		</g>
	</g>
</g>
</svg>
