<svg fill="none" height="18" viewBox="0 0 79 18" width="79" xmlns="http://www.w3.org/2000/svg" xmlns:xlink="http://www.w3.org/1999/xlink"><clipPath id="a"><path d="m0 0h79v18h-79z"/></clipPath><g clip-path="url(#a)"><path clip-rule="evenodd" d="m4.23 14.81c.57.15 1.55.27 2.57.27 2.33 0 3.15-1.21 3.15-3.94s-.82-3.97-3.07-3.97c-.62 0-1.63.18-2.65.49v7.14zm-4.23-14.06c0-.42.32-.75.75-.75h2.73c.42 0 .75.33.75.75v4.11c1.02-.32 2.02-.62 3.52-.62 3.9 0 6.56 2.33 6.56 6.89s-2.63 6.86-7.76 6.86c-2.37 0-5.25-.62-6.55-1.36zm17.23 17.15c-.4.01-.74-.31-.75-.71 0-.01 0-.02 0-.03v-11.48c0-.43.33-.75.75-.75h2.73c.42 0 .75.32.75.75v11.48c0 .4-.31.74-.72.74-.01 0-.02 0-.03 0zm-.78-16.51c0-.87.51-1.39 1.38-1.39h1.53c.87 0 1.35.52 1.35 1.39v.92c0 .87-.48 1.38-1.34 1.38h-1.53c-.88 0-1.38-.52-1.38-1.38v-.92zm11.65 16.57c-3.5 0-5.25-1.73-5.25-5.45v-11.76c.01-.42.33-.75.75-.75h2.73c.43 0 .75.32.75.75v4.32h3.54c.43 0 .75.32.75.74v1.67c0 .4-.31.74-.72.74-.01 0-.02 0-.04 0h-3.54v4.28c0 1.69.87 2.58 2.15 2.58.64 0 1.12-.15 1.68-.15h.45c.43 0 .75.32.75.74v1.29c0 .37-.32.66-.75.74-.75.15-2.12.25-3.26.25zm8.97-8.16h5.51c-.07-1.86-.95-2.85-2.75-2.85s-2.67.99-2.76 2.85zm.02 2.56c.17 1.98 1.04 2.85 3.04 2.85 1.02 0 1.92-.3 2.33-.82.32-.4.75-.64 1.35-.64h1.78c.42 0 .73.32.73.74 0 2.58-2.6 3.47-6.49 3.47-4.32 0-6.91-2.38-6.91-6.86s2.62-6.89 6.91-6.89 6.92 2.36 6.92 6.72v.7c0 .42-.31.74-.73.74h-8.94zm12.54 5.58c-.4.01-.74-.31-.75-.71 0-.01 0-.02 0-.03v-16.45c0-.42.32-.75.75-.75h2.72c.42 0 .75.32.75.75v16.44c0 .4-.32.74-.72.74h-.02-2.72z" fill="#007689" fill-rule="evenodd"/><g fill="#9f5ed9"><path d="m59.62 0h.97c1.19 0 2.16.96 2.16 2.15v1.13c0 .28-.23.51-.51.51s-.51-.23-.51-.51v-1.12c0-.37-.17-.69-.45-.9-.2-.15-.44-.23-.69-.23h-.97c-.63 0-1.14.51-1.14 1.13v1.87c0 .28-.23.51-.51.51s-.51-.23-.51-.51v-1.87c0-1.2.97-2.16 2.16-2.16zm6.72 1.23c-.38.18-.71.46-.94.82-.24.37-.37.79-.37 1.23v9.1c0 .88.51 1.68 1.31 2.05.29.14.61.21.96.21h2.71c.95 0 1.89-.24 2.74-.69.28-.15.54-.32.79-.51.22-.17.54-.13.71.09s.13.54-.09.71c-.66.51-1.41.89-2.21 1.13-.63.19-1.28.28-1.94.28h-2.71c-1.81 0-3.29-1.47-3.29-3.28v-9.09c0-.66.2-1.27.53-1.79.61-.93 1.65-1.49 2.76-1.49h2.8c.46 0 .92.04 1.37.1.28.04.47.3.43.58s-.3.47-.58.43c-.39-.06-.8-.09-1.21-.09h-2.8c-.34 0-.67.08-.96.21zm8.46.11c1.74 1.09 3.06 2.74 3.73 4.68.31.92.47 1.89.47 2.86 0 .73-.09 1.46-.27 2.17-.3 1.21-.86 2.35-1.64 3.32-.88 1.11-2 1.99-3.29 2.58-.26.12-.56 0-.67-.25s0-.56.25-.67c1.14-.52 2.14-1.3 2.91-2.28.69-.87 1.18-1.87 1.45-2.94.16-.63.24-1.27.24-1.92 0-.5-.05-1.01-.14-1.5-.24-1.23-.77-2.38-1.55-3.37-.57-.72-1.26-1.33-2.03-1.81-.24-.15-.31-.46-.16-.7s.46-.31.7-.16zm-7.23 1.92c-.26.16-.43.45-.43.76v1.23c0 .28-.23.51-.51.51s-.51-.23-.51-.51v-1.23c0-1.05.85-1.91 1.91-1.91h1.98c.99 0 1.96.22 2.86.63 2.09.97 3.54 2.93 3.86 5.22.17 1.23 0 2.49-.5 3.63-.12.25-.43.36-.68.23-.24-.12-.35-.39-.25-.64.32-.72.48-1.5.47-2.29 0-.63-.1-1.26-.31-1.86-.24-.7-.61-1.35-1.09-1.9-.54-.62-1.2-1.12-1.94-1.47-.76-.35-1.59-.54-2.43-.53h-1.97c-.17 0-.33.05-.47.13zm-6.97.84v10.3c0 .28-.23.51-.51.51s-.51-.23-.51-.51v-10.3c0-.28.23-.51.51-.51s.51.23.51.51zm9.36 1.13c.44 0 .86.08 1.25.22.26.1.56-.04.65-.3.1-.26-.04-.56-.3-.65-.51-.19-1.06-.28-1.6-.28h-1.2c-.29 0-.52.23-.53.52v4.15c0 .28.23.51.51.51s.51-.23.51-.51v-3.65h.71zm4.3 1.86c.22.54.34 1.13.34 1.75 0 1.48-.7 2.87-1.89 3.74-.8.59-1.76.9-2.75.9h-1.92c-1.06 0-1.92-.85-1.92-1.91v-2.14c0-.28.23-.51.51-.51s.51.23.51.51v2.14c0 .49.4.9.9.9h1.92c1.12 0 2.18-.51 2.86-1.4.8-1.02.98-2.39.49-3.59-.09-.27.05-.56.31-.65.25-.09.52.03.63.26zm-11.5.19v5.22c0 1.29.58 2.5 1.59 3.31.76.61 1.7.94 2.67.94h3.09c.28-.02.52.2.54.48s-.2.52-.48.54c-.02 0-.04 0-.06 0h-3.09c-.73 0-1.45-.15-2.11-.44-1.92-.84-3.16-2.73-3.16-4.82v-5.22c0-.28.23-.51.51-.51s.51.23.51.51zm-4.27 4.28v4.64c0 .3.24.55.55.55s.55-.24.55-.55c0-.28.23-.51.51-.51s.51.23.51.51c0 .86-.7 1.56-1.57 1.56s-1.57-.7-1.57-1.56v-4.64c0-.28.23-.51.51-.51s.51.23.51.51z"/><path clip-rule="evenodd" d="m66.34 1.23c-.38.18-.71.46-.94.82-.24.37-.37.79-.37 1.23v9.1c0 .88.51 1.68 1.31 2.05.29.14.61.21.96.21h2.71c.95 0 1.89-.24 2.74-.69.28-.15.54-.32.79-.51.22-.17.54-.13.71.09s.13.54-.09.71c-.66.51-1.41.89-2.21 1.13-.63.19-1.28.28-1.94.28h-2.71c-1.81 0-3.29-1.47-3.29-3.28v-9.09c0-.66.2-1.27.53-1.79.61-.93 1.65-1.49 2.76-1.49h2.8c.46 0 .92.04 1.37.1.28.04.47.3.43.58s-.3.47-.58.43c-.39-.06-.8-.09-1.21-.09h-2.8c-.34 0-.67.08-.96.21z" fill-rule="evenodd"/><path clip-rule="evenodd" d="m74.8 1.34c1.75 1.09 3.06 2.74 3.73 4.68.31.92.47 1.89.47 2.86 0 .73-.09 1.46-.27 2.17-.3 1.21-.86 2.35-1.64 3.32-.88 1.11-2 1.99-3.29 2.58-.26.12-.56 0-.67-.25s0-.56.25-.67c1.14-.52 2.14-1.3 2.91-2.28.69-.87 1.18-1.87 1.45-2.94.16-.63.24-1.27.24-1.92 0-.5-.05-1.01-.14-1.5-.24-1.23-.77-2.38-1.55-3.37-.57-.72-1.26-1.33-2.03-1.81-.24-.15-.31-.46-.16-.7s.46-.31.7-.16z" fill-rule="evenodd"/><path clip-rule="evenodd" d="m67.57 3.26c-.26.16-.43.45-.43.76v1.23c0 .28-.23.51-.51.51s-.51-.23-.51-.51v-1.23c0-1.05.85-1.91 1.91-1.91h1.98c.99 0 1.96.22 2.86.63 2.09.97 3.54 2.93 3.86 5.22.17 1.23 0 2.49-.5 3.63-.12.25-.43.36-.68.23-.24-.12-.35-.39-.25-.64.32-.72.48-1.5.47-2.29 0-.63-.1-1.26-.31-1.86-.24-.7-.61-1.35-1.09-1.9-.54-.62-1.2-1.12-1.94-1.47-.76-.35-1.59-.54-2.43-.53h-1.97c-.17 0-.33.05-.47.13zm-6.97.84v10.3c0 .28-.23.51-.51.51s-.51-.23-.51-.51v-10.3c0-.28.23-.51.51-.51s.51.23.51.51z" fill-rule="evenodd"/><path clip-rule="evenodd" d="m69.96 5.23c.44 0 .86.08 1.25.22.26.1.56-.04.65-.3.1-.26-.04-.56-.3-.65-.51-.19-1.06-.28-1.6-.28h-1.2c-.29 0-.52.23-.53.52v4.15c0 .28.23.51.51.51s.51-.23.51-.51v-3.65h.71z" fill-rule="evenodd"/><path clip-rule="evenodd" d="m74.26 7.09c.22.54.34 1.13.34 1.75 0 1.48-.7 2.87-1.89 3.74-.8.59-1.76.9-2.75.9h-1.92c-1.06 0-1.92-.85-1.92-1.91v-2.14c0-.28.23-.51.51-.51s.51.23.51.51v2.14c0 .49.4.9.9.9h1.92c1.12 0 2.18-.51 2.86-1.4.8-1.02.98-2.39.49-3.59-.09-.27.05-.56.31-.65.25-.09.52.03.63.26z" fill-rule="evenodd"/><path clip-rule="evenodd" d="m62.76 7.29v5.22c0 1.29.58 2.5 1.59 3.31.76.61 1.7.94 2.67.94h3.09c.28-.02.52.2.54.48s-.2.52-.48.54c-.02 0-.04 0-.06 0h-3.09c-.73 0-1.45-.15-2.11-.44-1.92-.84-3.16-2.73-3.16-4.82v-5.23c0-.28.23-.51.51-.51s.51.23.51.51zm-4.27 4.28v4.64c0 .3.24.55.55.55s.55-.24.55-.55c0-.28.23-.51.51-.51s.51.23.51.51c0 .86-.7 1.56-1.57 1.56s-1.57-.7-1.57-1.56v-4.64c0-.28.23-.51.51-.51s.51.23.51.51z" fill-rule="evenodd"/></g></g></svg>