<svg width="50" height="50" viewBox="0 0 50 50" xmlns="http://www.w3.org/2000/svg">
    <defs>
        <linearGradient x1="0%" y1="50%" x2="100%" y2="50%" id="mcyo1tw3oa">
            <stop stop-color="#06E8D2" offset="0%"/>
            <stop stop-color="#FFF200" offset="100%"/>
        </linearGradient>
    </defs>
    <g fill-rule="nonzero" fill="none">
        <path d="M25 3C12.868 3 3 12.87 3 25s9.868 22 22 22 22-9.87 22-22S37.132 3 25 3z" fill="#2A3248"/>
        <path d="M25 0c13.784 0 25 11.215 25 25 0 13.786-11.216 25-25 25C11.213 50 0 38.786 0 25 0 11.216 11.214 0 25 0zm0 3C12.868 3 3 12.87 3 25s9.868 22 22 22 22-9.87 22-22S37.132 3 25 3zm3.168 15.44-3.36 9.288c-.144.36.048.6.408.6h2.568v-4.08l.84-2.544h3.888v6.624h1.896v2.832l-1.848.48h-.048V35h-4.728v-3.36h-6.648c-1.368 0-2.256-1.2-1.776-2.472l4.008-10.728h4.8zM13.73 11.776a1.716 1.716 0 0 1-.494 2.353 8.574 8.574 0 0 0-3.884 7.17c0 .94-.75 1.701-1.676 1.701A1.689 1.689 0 0 1 6 21.3c0-4.046 2.023-7.793 5.41-10.025a1.66 1.66 0 0 1 2.32.501z" fill="url(#mcyo1tw3oa)"/>
    </g>
</svg>
