<svg width="50" height="50" viewBox="0 0 50 50" xmlns="http://www.w3.org/2000/svg">
    <defs>
        <linearGradient x1="0%" y1="50%" x2="100%" y2="50%" id="ztapgh3oda">
            <stop stop-color="#06E8D2" offset="0%"/>
            <stop stop-color="#FFF200" offset="100%"/>
        </linearGradient>
    </defs>
    <g fill-rule="nonzero" fill="none">
        <path d="M25 3C12.868 3 3 12.87 3 25s9.868 22 22 22 22-9.87 22-22S37.132 3 25 3z" fill="#2A3248"/>
        <path d="M25 0c13.784 0 25 11.215 25 25 0 13.786-11.216 25-25 25C11.213 50 0 38.786 0 25 0 11.216 11.214 0 25 0zm0 3C12.868 3 3 12.87 3 25s9.868 22 22 22 22-9.87 22-22S37.132 3 25 3zm1.128 15.152c3.672 0 6.12.816 6.12 4.128 0 1.728-.312 2.688-2.52 4.896l-3.912 3.696c.744-.216 1.416-.264 2.208-.24h4.608V35h-12.84v-2.592c0-.84.192-1.464.72-2.088l3.456-3.384c1.8-1.8 2.952-3.24 2.952-3.984 0-.456-.384-.504-1.464-.504h-1.255c-1.204.003-2.333.012-4.097.048l-.168-3.816c2.496-.456 4.296-.528 6.192-.528zM13.73 11.776a1.716 1.716 0 0 1-.494 2.353 8.574 8.574 0 0 0-3.884 7.17c0 .94-.75 1.701-1.676 1.701A1.689 1.689 0 0 1 6 21.3c0-4.046 2.023-7.793 5.41-10.025a1.66 1.66 0 0 1 2.32.501z" fill="url(#ztapgh3oda)"/>
    </g>
</svg>
