<svg width="50" height="50" viewBox="0 0 50 50" xmlns="http://www.w3.org/2000/svg">
    <defs>
        <linearGradient x1="0%" y1="50%" x2="100%" y2="50%" id="41ru9523ma">
            <stop stop-color="#06E8D2" offset="0%"/>
            <stop stop-color="#FFF200" offset="100%"/>
        </linearGradient>
    </defs>
    <g fill-rule="nonzero" fill="none">
        <path d="M25 3C12.868 3 3 12.87 3 25s9.868 22 22 22 22-9.87 22-22S37.132 3 25 3z" fill="#2A3248"/>
        <path d="M25 0c13.784 0 25 11.215 25 25 0 13.786-11.216 25-25 25C11.213 50 0 38.786 0 25 0 11.216 11.214 0 25 0zm0 3C12.868 3 3 12.87 3 25s9.868 22 22 22 22-9.87 22-22S37.132 3 25 3zm.84 15.104c4.248 0 5.76.912 5.76 3.864 0 2.448-.504 3.864-2.736 4.176v.096c2.4.36 3.144 1.56 3.168 4.152.048 3.552-1.632 4.944-6.168 4.944-2.064 0-4.248-.192-6.192-.456l.144-3.648c2.232.096 3.192.12 4.608.12h.198c1.804-.013 2.274-.22 2.274-1.68 0-1.272-.336-1.68-1.848-1.656l-3.192.048v-3.168h3.192c1.584 0 1.704-.504 1.704-1.488 0-1.104-.384-1.344-1.848-1.344h-4.728l-.144-3.504a36.872 36.872 0 0 1 5.808-.456zm-12.11-6.328a1.716 1.716 0 0 1-.494 2.353 8.574 8.574 0 0 0-3.884 7.17c0 .94-.75 1.701-1.676 1.701A1.689 1.689 0 0 1 6 21.3c0-4.046 2.023-7.793 5.41-10.025a1.66 1.66 0 0 1 2.32.501z" fill="url(#41ru9523ma)"/>
    </g>
</svg>
