<svg width="50" height="50" viewBox="0 0 50 50" xmlns="http://www.w3.org/2000/svg">
    <defs>
        <linearGradient x1="0%" y1="50%" x2="100%" y2="50%" id="ctjt6wm6ma">
            <stop stop-color="#06E8D2" offset="0%"/>
            <stop stop-color="#FFF200" offset="100%"/>
        </linearGradient>
    </defs>
    <g fill-rule="nonzero" fill="none">
        <path d="M25 3C12.868 3 3 12.87 3 25s9.868 22 22 22 22-9.87 22-22S37.132 3 25 3z" fill="#2A3248"/>
        <path d="M25 0c13.784 0 25 11.215 25 25 0 13.786-11.216 25-25 25C11.213 50 0 38.786 0 25 0 11.216 11.214 0 25 0zm0 3C12.868 3 3 12.87 3 25s9.868 22 22 22 22-9.87 22-22S37.132 3 25 3zm3.456 15.44V35h-5.184V24.632c0-.72.024-1.416.192-2.136l-3.816.744-.6-3.192 4.224-1.608h5.184zM13.73 11.776a1.716 1.716 0 0 1-.494 2.353 8.574 8.574 0 0 0-3.884 7.17c0 .94-.75 1.701-1.676 1.701A1.689 1.689 0 0 1 6 21.3c0-4.046 2.023-7.793 5.41-10.025a1.66 1.66 0 0 1 2.32.501z" fill="url(#ctjt6wm6ma)"/>
    </g>
</svg>
