<svg width="26" height="26" viewBox="0 0 26 26" xmlns="http://www.w3.org/2000/svg">
    <path d="M13 1C6.383 1 1 6.383 1 13s5.383 12 12 12 12-5.383 12-12S19.617 1 13 1zm0 1.8c5.644 0 10.2 4.556 10.2 10.2a10.18 10.18 0 0 1-8.4 10.032V16h2.175a.6.6 0 0 0 .595-.526l.225-1.8A.6.6 0 0 0 17.2 13h-2.4v-2.1c0-.662.538-1.2 1.2-1.2h1.2a.6.6 0 0 0 .6-.6V7.075a.6.6 0 0 0-.546-.598c-.035-.003-.882-.077-1.954-.077-2.644 0-4.1 1.57-4.1 4.42V13H8.8a.6.6 0 0 0-.6.6v1.8a.6.6 0 0 0 .6.6h2.4v7.032A10.18 10.18 0 0 1 2.8 13C2.8 7.356 7.356 2.8 13 2.8z" fill="#FFF" fill-rule="nonzero" stroke="#FFF" stroke-width=".5"/>
</svg>
