<svg width="24" height="20" viewBox="0 0 24 20" xmlns="http://www.w3.org/2000/svg">
    <path d="M23.498 2.623A3.007 3.007 0 0 0 21.377.502C19.505 0 12 0 12 0S4.495 0 2.623.502A3.007 3.007 0 0 0 .502 2.623C0 4.495 0 9.6 0 9.6s0 5.105.502 6.977a3.007 3.007 0 0 0 2.121 2.121C4.495 19.2 12 19.2 12 19.2s7.505 0 9.377-.502a3.005 3.005 0 0 0 2.121-2.121C24 14.705 24 9.6 24 9.6s0-5.105-.502-6.977zM9.6 12.718V6.482a.6.6 0 0 1 .9-.52l5.4 3.118a.6.6 0 0 1 0 1.04l-5.4 3.117a.6.6 0 0 1-.9-.52z" fill="#FFF" fill-rule="nonzero"/>
</svg>
